<svg id="mask" version="1.1" xmlns="http://www.w3.org/2000/svg" xmlns:xlink="http://www.w3.org/1999/xlink" x="0px" y="0px" width="888.24px"
	 height="235.53px" viewBox="0 0 888.24 235.53" style="enable-background:new 0 0 888.24 235.53;" xml:space="preserve">
<image xmlns:xlink="http://www.w3.org/1999/xlink" xlink:href="image/text.svg"
width="739" height="258.9" mask="url(#clipmask)"></image>
<mask id="clipmask" maskUnits="objectBoundingBox">
<g>
<path class="st0" d="M184.7,21.7c0.2-0.4-10.4-18.7-65.2-11.4c-54.2,7.2-97.9,23.4-93.7,56.1c4.9,38.4,105.4,31,105.1,28.8
	c-7.4-5.6-148.5,12.8-129,79.8c17.2,59.2,84.6,50.3,111.8,47.1s69.7-20.7,72.1-31"/>
<path class="st0" d="M203.9,162c0,0,30.8-36.7,37.5-90.2s5.1-69.1-7.6-65.5c-12.7,3.6-17.1,41.8-24,68.3
	c-6.9,26.5-13.3,91.2-3.8,123.9s19.1,33.6,28.8,25.5c9.7-8.2,33.4-73.7,40.3-87.4c0.8,18.1-9.4,84.4,2.8,88.2
	c12.2,3.8,22.7-45.9,23.2-57.3c0.5-11.5,8.2-36.2,14.8-34.1c6.6,2,4.3,36.4,1.8,57.3s0,31.6,10.2,28c10.2-3.6,30.3-77.2,29.6-82.8
	c-0.8-5.6,12-12.5,12.5-5.1c0.5,7.4-13,56.1-8.7,71.6c4.3,15.5,12.5,31.1,27,5.4c14.5-25.7,24.2-78.2,24.2-78.2"/>
<path class="st0" d="M538.7,100.6c0,0,14-63.9,9.2-74.7c-7.4-16.6-34.1-32.1-53.5-23.4c-19.4,8.7-34.9,34.1-45.9,65.8
	s-21.7,91-13,117.2c8.7,26.2,13.3,36.2,43.6,39.5c30.3,3.3,65.5-7.4,77-34.1"/>
<path class="st0" d="M578.5,156.4c0,0,25.2-33.4,35.4-86.4c10.2-53-1.5-65.8-7.6-65.8c-6.1,0-13.5,32.6-18.9,50.5
	s-21.2,97.9-10.2,140.2s32.1,35.7,38.7,21.7c6.6-14,28.3-91.7,28.3-91.7s-20.4,99.1,6.9,96.8s38.2-90.2,38.2-90.2
	s-6.9,85.6,8.2,85.6s34.9-102.2,34.9-102.2s-4.3,100.4,14.8,106.3c19.1,5.9,37-96.8,37-96.8s-19.1,96.6,6.6,97.6
	c25.7,1,39-94,41-98.9s7.9-15.5,15.3-7.6c7.4,7.9,17.1,16.6,3.6,13.8s-15.3-2-18.3,2.8c-3.1,4.8-17.8,72.6-5.4,83.6
	c12.5,11,22.9,17.8,33.6-10.7c10.7-28.5,22.2-72.1,21.2-72.4"/>
<path class="st0" d="M651.4,44.5c-3.5-2.2-1.8-13.3,3.1-9.2S654.2,46.3,651.4,44.5z"/>
<path class="st0" d="M789.3,44.5c-5.6-3.4,0-17.8,5.4-10.7S796.4,48.9,789.3,44.5z"/>
</g>
</mask>
</svg>
