<?xml version="1.0" standalone="no"?>
<!DOCTYPE svg PUBLIC "-//W3C//DTD SVG 20010904//EN"
 "http://www.w3.org/TR/2001/REC-SVG-20010904/DTD/svg10.dtd">
<svg version="1.0" xmlns="http://www.w3.org/2000/svg"
 width="196.000000pt" height="196.000000pt" viewBox="0 0 196.000000 196.000000"
 preserveAspectRatio="xMidYMid meet">
<metadata>
Created by potrace 1.11, written by Peter Selinger 2001-2013
</metadata>
<g transform="translate(0.000000,196.000000) scale(0.100000,-0.100000)"
fill="#000000" stroke="none">
<path d="M977 1761 c-79 -21 -127 -59 -127 -102 0 -37 45 -73 82 -65 25 5 28
2 28 -19 0 -32 33 -65 65 -65 63 0 92 76 78 200 -7 60 -10 65 -33 67 -14 1
-55 -6 -93 -16z"/>
<path d="M657 1674 c-4 -4 -7 -38 -7 -76 0 -55 4 -72 20 -88 11 -11 25 -20 31
-20 23 0 49 22 49 40 0 14 7 20 24 20 25 0 56 23 56 41 0 23 -24 52 -53 64
-42 17 -111 28 -120 19z"/>
<path d="M490 1607 c0 -49 20 -80 45 -71 8 4 15 10 15 15 0 5 11 14 25 19 28
11 33 41 10 60 -8 6 -32 14 -55 17 l-40 6 0 -46z"/>
<path d="M1218 1637 c-37 -17 -68 -47 -68 -67 0 -24 26 -44 46 -36 11 4 22 -1
31 -14 19 -27 51 -25 64 4 8 17 7 36 -3 72 -15 52 -27 60 -70 41z"/>
<path d="M328 1563 c-3 -86 9 -116 46 -111 12 2 25 13 31 26 5 12 17 22 26 22
22 0 43 26 36 44 -9 23 -47 43 -94 51 l-43 7 -2 -39z"/>
<path d="M1363 1575 c-33 -23 -35 -54 -7 -82 14 -14 31 -22 39 -19 10 3 13 -4
13 -26 -2 -53 54 -76 91 -39 20 20 34 62 46 139 l7 42 -84 0 c-57 0 -90 -5
-105 -15z"/>
<path d="M907 1513 c90 -118 130 -267 119 -443 -6 -95 -22 -200 -25 -158 -1
10 -10 23 -20 30 -15 9 -17 15 -8 30 9 14 8 21 -5 34 -27 27 -64 10 -98 -44
l-30 -47 52 -24 c43 -20 57 -22 80 -13 24 9 28 8 27 -6 -1 -41 -65 -236 -81
-246 -25 -15 -154 6 -221 37 -127 58 -215 210 -217 377 -1 41 -2 43 -12 20
-18 -44 -5 -228 20 -284 61 -136 197 -216 368 -216 24 0 44 -2 44 -4 0 -3 -9
-42 -20 -88 -11 -46 -23 -129 -27 -186 l-6 -102 133 0 c122 0 132 1 125 18 -4
9 -9 76 -12 148 -9 210 30 341 126 425 62 55 76 51 46 -13 -35 -76 -33 -83 26
-96 67 -16 90 -15 117 4 29 20 28 48 -4 73 -15 12 -24 27 -21 35 3 7 -1 25 -8
40 l-14 26 67 1 67 1 -45 20 c-27 13 -74 23 -117 26 l-71 5 13 38 c17 47 13
50 -69 56 -50 4 -66 2 -79 -11 -25 -25 -21 -55 8 -68 42 -19 33 -63 -24 -125
l-47 -53 13 73 c22 122 27 360 10 454 -26 143 -84 240 -169 284 -21 10 -40 19
-43 19 -2 0 12 -21 32 -47z"/>
<path d="M807 1518 c-25 -23 -73 -126 -63 -135 11 -12 122 -32 143 -26 51 12
63 77 17 89 -19 5 -22 11 -18 33 4 18 0 33 -11 44 -22 23 -39 21 -68 -5z"/>
<path d="M550 1447 c0 -44 5 -68 15 -77 20 -17 48 -9 60 18 6 13 19 22 33 22
12 0 25 7 29 16 13 34 -27 65 -99 78 l-38 7 0 -64z"/>
<path d="M1077 1483 c-22 -26 -22 -38 5 -65 12 -12 22 -35 22 -51 1 -38 26
-54 63 -42 20 7 38 28 61 73 l33 62 -38 17 c-62 26 -125 29 -146 6z"/>
<path d="M1286 1464 c-18 -18 -19 -24 -7 -43 6 -10 3 -20 -12 -32 -18 -14 -20
-21 -11 -36 16 -26 56 -27 109 -4 l46 21 -18 31 c-19 32 -68 79 -83 79 -5 0
-16 -7 -24 -16z"/>
<path d="M437 1452 c-24 -26 -39 -74 -28 -85 18 -18 92 -14 105 6 9 15 7 21
-6 31 -10 7 -18 22 -18 34 0 11 -7 23 -16 26 -21 8 -19 9 -37 -12z"/>
<path d="M1593 1419 c-12 -6 -24 -21 -27 -32 -6 -25 18 -67 39 -67 17 0 20
-16 5 -25 -15 -9 -12 -42 6 -59 41 -42 99 -6 148 90 l25 52 -48 21 c-61 26
-120 34 -148 20z"/>
<path d="M1478 1367 c-38 -17 -68 -47 -68 -68 0 -20 35 -43 50 -34 6 4 19 -3
28 -16 13 -15 24 -20 39 -15 28 9 34 39 21 98 -12 51 -21 56 -70 35z"/>
<path d="M896 1318 c-8 -13 -22 -39 -30 -60 l-16 -36 32 -11 c44 -15 103 -14
118 4 14 17 4 55 -15 55 -8 0 -15 13 -17 33 -2 26 -8 33 -30 35 -19 2 -31 -3
-42 -20z"/>
<path d="M290 1259 c1 -131 33 -199 96 -199 38 0 64 29 64 71 0 22 4 26 23 22
30 -6 77 32 77 61 0 35 -36 74 -78 85 -20 5 -70 13 -109 17 l-73 7 0 -64z"/>
<path d="M1254 1265 c-19 -30 -12 -70 16 -85 18 -10 18 -12 2 -39 -13 -24 -14
-34 -4 -55 27 -60 106 -37 177 53 25 31 45 58 45 61 0 3 -30 24 -67 48 -82 52
-142 58 -169 17z"/>
<path d="M1134 1265 c-3 -8 -3 -19 0 -24 4 -6 1 -19 -5 -29 -7 -11 -9 -27 -5
-37 5 -14 13 -16 38 -11 18 3 42 13 55 22 l24 15 -23 32 c-12 18 -27 35 -33
39 -17 13 -45 9 -51 -7z"/>
<path d="M1543 1195 c-29 -20 -31 -70 -4 -86 16 -11 17 -15 4 -40 -28 -55 25
-96 85 -65 16 8 48 39 71 67 l42 52 -58 38 c-71 46 -110 55 -140 34z"/>
<path d="M217 1159 c-17 -10 -57 -87 -57 -109 0 -5 24 -14 53 -21 41 -9 59 -9
75 0 28 15 30 57 3 66 -12 4 -17 12 -14 24 2 10 -3 25 -12 35 -19 19 -24 19
-48 5z"/>
<path d="M552 1154 c-23 -16 -29 -48 -12 -59 16 -10 12 -22 -10 -28 -14 -4
-20 -14 -20 -34 0 -59 49 -69 133 -27 29 15 54 28 55 30 9 7 -71 112 -93 122
-32 15 -26 15 -53 -4z"/>
<path d="M935 1154 c-11 -8 -27 -19 -35 -24 -12 -7 -9 -15 20 -45 41 -42 74
-44 76 -5 1 14 5 33 9 43 18 42 -28 63 -70 31z"/>
<path d="M795 1134 c-17 -18 -45 -79 -45 -100 0 -13 78 -31 115 -26 38 5 49
60 14 69 -12 4 -18 11 -15 20 9 21 -12 53 -34 53 -10 0 -26 -7 -35 -16z"/>
<path d="M1144 1125 c-4 -8 -4 -22 -1 -30 4 -8 2 -17 -3 -20 -15 -10 -12 -45
5 -51 17 -7 58 8 89 31 19 15 19 16 -14 50 -36 37 -67 45 -76 20z"/>
<path d="M1420 1059 c-25 -11 -55 -30 -67 -41 -42 -39 -21 -96 31 -86 18 4 27
-1 35 -19 8 -17 19 -23 40 -23 34 0 51 22 51 68 0 32 -28 122 -38 121 -4 0
-27 -9 -52 -20z"/>
<path d="M323 1030 c-21 -9 -83 -103 -83 -127 0 -12 99 -53 129 -53 10 0 29 8
41 18 28 22 22 67 -10 77 -16 5 -18 10 -9 26 8 16 7 26 -6 45 -16 26 -27 28
-62 14z"/>
<path d="M1670 975 c-14 -17 -4 -55 15 -55 11 0 13 -8 9 -30 -12 -59 59 -53
94 9 31 54 28 66 -17 79 -52 16 -86 15 -101 -3z"/>
<path d="M573 950 c-43 -18 -41 -85 3 -96 16 -4 23 -11 20 -20 -3 -8 -9 -21
-12 -29 -3 -8 5 -25 20 -40 24 -24 28 -24 58 -12 24 10 41 30 70 82 20 39 34
73 30 77 -12 12 -123 48 -146 47 -12 0 -31 -4 -43 -9z"/>
<path d="M1541 914 c-19 -14 -22 -24 -19 -60 2 -28 -1 -44 -8 -44 -6 0 -23 -9
-38 -21 -31 -24 -35 -68 -7 -93 41 -37 88 -37 238 -1 l22 5 -24 70 c-30 89
-51 123 -85 144 -35 20 -50 20 -79 0z"/>
<path d="M847 852 c-10 -10 -17 -24 -17 -30 0 -7 -12 -9 -33 -5 -61 10 -89
-50 -45 -96 12 -13 49 -36 82 -51 l61 -28 11 21 c19 36 36 126 30 151 -13 53
-59 72 -89 38z"/>
<path d="M181 847 c-6 -8 -17 -30 -26 -50 l-15 -36 42 -11 c29 -8 48 -9 65 -1
26 12 31 39 8 47 -8 4 -15 14 -15 23 0 35 -38 53 -59 28z"/>
<path d="M392 833 c-7 -3 -24 -27 -37 -54 l-25 -49 37 -15 c77 -32 157 3 105
45 -13 11 -21 24 -17 30 3 6 3 19 0 30 -6 19 -33 25 -63 13z"/>
<path d="M298 689 c-22 -12 -23 -32 -4 -49 8 -6 13 -17 11 -23 -3 -7 -1 -18 4
-26 15 -24 55 -5 75 36 17 35 17 38 0 50 -10 7 -23 13 -30 13 -7 0 -18 2 -26
5 -7 2 -21 0 -30 -6z"/>
<path d="M447 672 c-26 -28 -37 -69 -37 -134 l0 -61 72 6 c83 7 121 29 126 72
4 32 -18 55 -52 55 -16 0 -21 7 -23 27 -2 47 -55 69 -86 35z"/>
<path d="M1155 656 c-13 -9 -16 -20 -12 -37 4 -15 0 -30 -10 -42 -13 -14 -15
-22 -7 -35 16 -25 57 -26 109 -3 l46 20 -31 46 c-26 37 -56 65 -72 65 -2 0
-12 -6 -23 -14z"/>
<path d="M1425 626 c-14 -22 -20 -23 -41 -14 -19 9 -28 8 -44 -7 -11 -10 -20
-26 -20 -35 0 -29 39 -69 93 -96 49 -25 51 -26 64 -8 8 11 21 43 29 71 13 44
13 57 2 80 -18 39 -61 43 -83 9z"/>
<path d="M663 548 c-20 -26 -22 -49 -7 -100 9 -29 19 -56 22 -60 9 -8 104 38
120 59 29 39 -1 93 -43 77 -10 -4 -22 1 -31 15 -17 23 -46 28 -61 9z"/>
<path d="M1513 365 c-18 -13 -26 -13 -42 -3 -17 10 -24 9 -44 -10 -14 -13 -32
-41 -42 -63 -17 -37 -20 -39 -50 -33 -41 7 -52 -9 -25 -36 14 -14 27 -19 38
-14 26 11 42 8 104 -16 65 -26 103 -21 114 13 3 12 12 29 18 37 7 8 13 24 14
35 1 11 3 29 4 40 2 14 -2 19 -15 17 -10 -2 -17 2 -16 10 5 41 -19 51 -58 23z
m47 -14 c0 -10 -18 -43 -40 -72 -41 -55 -47 -69 -30 -69 6 0 26 25 45 55 52
80 72 68 29 -17 -8 -15 -14 -30 -14 -33 1 -20 -2 -24 -19 -30 -10 -3 -43 4
-72 15 -87 33 -86 31 -55 93 14 30 33 58 42 61 20 8 30 -20 14 -40 -10 -11
-10 -18 -2 -26 9 -9 12 -7 12 10 0 12 4 22 10 22 5 0 20 11 34 25 30 30 46 32
46 6z m-211 -120 c7 -5 9 -11 4 -14 -6 -4 -19 0 -29 8 -15 11 -16 14 -4 15 8
0 21 -4 29 -9z"/>
<path d="M1195 353 c-33 -8 -65 -44 -65 -74 0 -15 4 -30 9 -33 5 -3 8 8 7 25
-1 36 38 74 70 67 17 -3 17 -6 -7 -29 -19 -20 -25 -36 -25 -65 1 -44 20 -53
71 -34 38 15 24 25 -16 11 -42 -14 -57 -2 -41 34 10 21 19 25 54 27 37 1 39 2
11 5 -61 8 -33 53 32 53 29 0 36 3 25 10 -15 10 -89 12 -125 3z"/>
<path d="M1637 309 l-42 -41 40 31 c22 17 43 31 47 31 5 0 -3 -22 -17 -50 -14
-27 -25 -56 -25 -64 0 -25 16 -27 36 -3 16 19 17 20 1 8 -30 -23 -29 -7 3 54
45 85 26 101 -43 34z"/>
<path d="M1700 219 c0 -5 5 -7 10 -4 6 3 10 8 10 11 0 2 -4 4 -10 4 -5 0 -10
-5 -10 -11z"/>
</g>
</svg>
